<?xml version="1.0" standalone="no"?><!DOCTYPE svg PUBLIC "-//W3C//DTD SVG 1.1//EN" "http://www.w3.org/Graphics/SVG/1.1/DTD/svg11.dtd"><svg t="1570341992997" class="icon" viewBox="0 0 1024 1024" version="1.1" xmlns="http://www.w3.org/2000/svg" p-id="1919" xmlns:xlink="http://www.w3.org/1999/xlink" width="200" height="200"><defs><style type="text/css"></style></defs><path d="M512 17.066667C238.592 17.066667 17.066667 238.592 17.066667 512s221.525333 494.933333 494.933333 494.933333 494.933333-221.525333 494.933333-494.933333S785.408 17.066667 512 17.066667z m285.013333 330.752L457.386667 720.554667c-6.144 6.826667-15.018667 10.922667-24.234667 10.922666-9.216 0-18.090667-4.096-24.576-10.922666l-181.589333-201.045334c-12.288-13.653333-11.264-34.474667 2.389333-46.762666 13.653333-12.288 34.474667-11.264 46.762667 2.389333l157.354666 174.08 315.050667-345.770667c12.288-13.312 33.109333-14.336 46.762667-2.048 12.970667 12.288 13.994667 33.109333 1.706666 46.421334z" fill="#41BD96" p-id="1920"></path></svg>